<mxfile host="app.diagrams.net" modified="2024-03-24T16:22:58.216Z" agent="Mozilla/5.0 (Macintosh; Intel Mac OS X 10_15_7) AppleWebKit/537.36 (KHTML, like Gecko) Chrome/123.0.0.0 Safari/537.36" etag="VDudZW_E-aH9IyBNAnwG" version="24.1.0" type="github">
  <diagram name="Page-1" id="mBJXsnvCatKVE2TKUrdj">
    <mxGraphModel dx="954" dy="640" grid="1" gridSize="10" guides="1" tooltips="1" connect="1" arrows="1" fold="1" page="1" pageScale="1" pageWidth="827" pageHeight="1169" math="0" shadow="0">
      <root>
        <mxCell id="0" />
        <mxCell id="1" parent="0" />
        <mxCell id="mY5hwbbiTBno88140wNC-4" style="edgeStyle=orthogonalEdgeStyle;rounded=0;orthogonalLoop=1;jettySize=auto;html=1;exitX=1;exitY=0.5;exitDx=0;exitDy=0;" edge="1" parent="1" source="mY5hwbbiTBno88140wNC-1" target="mY5hwbbiTBno88140wNC-3">
          <mxGeometry relative="1" as="geometry" />
        </mxCell>
        <mxCell id="mY5hwbbiTBno88140wNC-5" style="edgeStyle=orthogonalEdgeStyle;rounded=0;orthogonalLoop=1;jettySize=auto;html=1;exitX=0;exitY=0.5;exitDx=0;exitDy=0;entryX=0.5;entryY=0;entryDx=0;entryDy=0;" edge="1" parent="1" source="mY5hwbbiTBno88140wNC-1" target="mY5hwbbiTBno88140wNC-2">
          <mxGeometry relative="1" as="geometry" />
        </mxCell>
        <mxCell id="mY5hwbbiTBno88140wNC-6" style="edgeStyle=orthogonalEdgeStyle;rounded=0;orthogonalLoop=1;jettySize=auto;html=1;exitX=1;exitY=0.5;exitDx=0;exitDy=0;" edge="1" parent="1" source="mY5hwbbiTBno88140wNC-1">
          <mxGeometry relative="1" as="geometry">
            <mxPoint x="490" y="110" as="targetPoint" />
          </mxGeometry>
        </mxCell>
        <mxCell id="mY5hwbbiTBno88140wNC-1" value="&lt;div style=&quot;text-align: center;&quot;&gt;Common&lt;/div&gt;&lt;div style=&quot;&quot;&gt;&lt;ol&gt;&lt;li&gt;platfom interface&lt;/li&gt;&lt;li&gt;expect function return Platform&lt;/li&gt;&lt;/ol&gt;&lt;/div&gt;" style="whiteSpace=wrap;html=1;aspect=fixed;align=left;fillColor=#f5f5f5;fontColor=#333333;strokeColor=#666666;" vertex="1" parent="1">
          <mxGeometry x="344" y="40" width="156" height="156" as="geometry" />
        </mxCell>
        <mxCell id="mY5hwbbiTBno88140wNC-2" value="" style="whiteSpace=wrap;html=1;aspect=fixed;fillColor=#f5f5f5;strokeColor=#666666;fontColor=#333333;" vertex="1" parent="1">
          <mxGeometry x="150" y="196" width="140" height="140" as="geometry" />
        </mxCell>
        <mxCell id="mY5hwbbiTBno88140wNC-3" value="" style="whiteSpace=wrap;html=1;aspect=fixed;fillColor=#f5f5f5;fontColor=#333333;strokeColor=#666666;" vertex="1" parent="1">
          <mxGeometry x="540" y="200" width="150" height="150" as="geometry" />
        </mxCell>
      </root>
    </mxGraphModel>
  </diagram>
</mxfile>
